#!OML:ASF Y:\EmotionMaleHayes\Project 1\Capture day 1\Session 1\Male1.ASF
:FULLY-SPECIFIED
:DEGREES
103
root 42.9947 17.1947 -5.42548 144.831 78.3514 149.343
lowerback 13.4226 -4.68601 -11.6753
upperback 3.35665 -7.60955 -0.512698
thorax -2.43372 -3.6995 7.0419
lowerneck -25.2074 3.98874 2.49602
upperneck 27.0408 5.21599 -0.905088
head 13.4161 2.47564 0.217755
rclavicle 2.17172e-014 1.22253e-014
rhumerus -88.9657 16.817 -86.2028
rradius 72.1532
rwrist -17.8509
rhand -26.1995 -30.7167
rfingers 7.12502
rthumb 0.353063 -60.6961
lclavicle 2.17172e-014 1.22253e-014
lhumerus -18.2006 -29.7948 82.7873
lradius 101.188
lwrist 14.6532
lhand -35.8402 -27.827
lfingers 7.12502
lthumb -8.95558 1.96294
rfemur -34.3766 -4.17325 9.46076
rtibia 39.9063
rfoot 1.86076 -10.6645
rtoes 19.832
lfemur 22.7719 0.148152 -25.4735
ltibia 24.6015
lfoot -10.8384 -6.00555
ltoes -6.15391
104
root 43.5556 17.2708 -5.44987 145.907 77.3663 150.139
lowerback 12.8407 -5.103 -11.9725
upperback 3.23745 -8.13949 -0.506402
thorax -2.09445 -3.98507 7.19505
lowerneck -25.4892 3.98648 2.36655
upperneck 27.3477 5.17625 -0.614887
head 13.5865 2.48315 0.356159
rclavicle -4.93172e-014 1.59028e-014
rhumerus -90.449 16.9517 -85.4527
rradius 73.0798
rwrist -18.3307
rhand -26.1017 -30.4015
rfingers 7.12502
rthumb 0.447476 -60.3808
lclavicle -4.93172e-014 1.59028e-014
lhumerus -18.4294 -31.4532 82.0961
lradius 103.282
lwrist 15.1994
lhand -35.423 -27.5318
lfingers 7.12502
lthumb -8.55304 2.27499
rfemur -32.539 -4.85976 8.61208
rtibia 33.0436
rfoot 3.57363 -11.9912
rtoes 23.5232
lfemur 24.2017 -0.672049 -25.7002
ltibia 24.2282
lfoot -10.9164 -6.06696
ltoes -6.25074
105
root 44.1393 17.3306 -5.47287 146.092 76.6418 149.942
lowerback 12.3552 -5.40807 -12.2092
upperback 2.69718 -8.577 -0.546782
thorax -2.29239 -4.17536 7.29613
lowerneck -25.381 4.12872 3.07901
upperneck 27.9728 5.39601 -1.39127
head 13.8865 2.54671 -0.0190733
rclavicle 5.81135e-015 -2.73329e-014
rhumerus -92.6312 17.1826 -84.7786
rradius 74.1495
rwrist -18.5438
rhand -25.6206 -30.1847
rfingers 7.12502
rthumb 0.912194 -60.1625
lclavicle 5.81135e-015 -2.73329e-014
lhumerus -19.5798 -33.1845 81.7843
lradius 105.145
lwrist 14.9472
lhand -35.2368 -27.8701
lfingers 7.12502
lthumb -8.37334 1.94389
rfemur -30.8212 -5.24527 7.88222
rtibia 26.9057
rfoot 4.52208 -12.6471
rtoes 24.2863
lfemur 25.3405 -1.45103 -26.0675
ltibia 24.5469
lfoot -11.4654 -5.45049
ltoes -4.79001
106
root 44.7387 17.3686 -5.50601 146.997 76.3732 150.677
lowerback 10.9833 -5.67433 -12.0937
upperback 2.88036 -8.71756 -0.465024
thorax -1.32032 -4.32611 7.13343
lowerneck -25.3848 4.28985 3.50775
upperneck 27.697 5.62007 -1.95887
head 13.8129 2.605 -0.275676
rclavicle -1.16538e-014 -2.5519e-014
rhumerus -93.6572 17.3552 -83.6453
rradius 75.1083
rwrist -18.6826
rhand -25.0256 -29.6154
rfingers 7.12502
rthumb 1.48684 -59.5899
lclavicle -1.16538e-014 -2.5519e-014
lhumerus -19.467 -34.6524 80.798
lradius 106.761
lwrist 14.5195
lhand -34.9115 -28.5239
lfingers 7.12502
lthumb -8.05932 1.30248
rfemur -28.9447 -5.34556 7.64569
rtibia 20.8327
rfoot 5.62278 -12.5086
rtoes 18.4796
lfemur 26.5539 -2.0686 -26.0442
ltibia 25.4101
lfoot -12.3561 -4.17171
ltoes -3.36175
107
root 45.3079 17.3835 -5.54861 145.877 75.145 148.931
lowerback 10.0676 -6.01398 -12.6638
upperback 2.53056 -9.14354 -0.665338
thorax -1.0466 -4.54525 7.15109
lowerneck -25.1737 4.41717 3.9007
upperneck 27.6307 5.82831 -2.48737
head 13.784 2.665 -0.514398
rclavicle -1.11835e-013 -2.36554e-014
rhumerus -94.9981 17.4446 -82.3905
rradius 76.0349
rwrist -18.5763
rhand -24.2883 -28.863
rfingers 7.12502
rthumb 2.19889 -58.8314
lclavicle -1.11835e-013 -2.36554e-014
lhumerus -20.1658 -36.0103 80.316
lradius 108.362
lwrist 13.7068
lhand -34.6568 -29.2397
lfingers 7.12502
lthumb -7.81355 0.5959
rfemur -27.8791 -7.05851 6.36227
rtibia 16.1412
rfoot 5.573 -13.1123
rtoes 19.7073
lfemur 26.822 -2.63041 -27.1332
ltibia 27.0793
lfoot -13.2461 -2.849
ltoes -5.02162
108
root 45.8797 17.3772 -5.5821 143.219 73.9557 145.691
lowerback 9.16711 -6.23003 -13.8464
upperback 2.18322 -9.44443 -0.877757
thorax -0.700049 -4.70488 7.46398
lowerneck -24.9077 4.42987 3.52411
upperneck 27.3616 5.8551 -2.06606
head 13.5859 2.70192 -0.287506
rclavicle -5.14107e-014 7.15625e-015
rhumerus -96.1372 17.6766 -80.9127
rradius 76.9414
rwrist -18.2879
rhand -23.278 -28.3882
rfingers 7.12502
rthumb 3.1746 -58.3443
lclavicle -5.14107e-014 7.15625e-015
lhumerus -21.1615 -37.0475 80.0693
lradius 109.881
lwrist 12.4961
lhand -35.4176 -30.3595
lfingers 7.12502
lthumb -8.54778 -0.552532
rfemur -27.1307 -8.59672 4.87878
rtibia 13.0521
rfoot 4.33318 -14.1447
rtoes 24.209
lfemur 26.9834 -2.75627 -28.3728
ltibia 29.0393
lfoot -13.8963 -1.41486
ltoes -8.56385
109
root 46.4487 17.349 -5.60847 139.577 72.7097 141.42
lowerback 8.27471 -6.28689 -15.5257
upperback 1.82832 -9.54571 -1.14355
thorax -0.331685 -4.76219 7.9689
lowerneck -24.6104 4.56377 3.50708
upperneck 27.1913 6.10134 -2.18606
head 13.4664 2.79609 -0.292198
rclavicle 7.69669e-014 3.20043e-014
rhumerus -97.0467 17.7648 -79.2074
rradius 77.8134
rwrist -17.9575
rhand -22.1582 -27.8131
rfingers 7.12502
rthumb 4.25604 -57.7504
lclavicle 7.69669e-014 3.20043e-014
lhumerus -22.3097 -38.0528 80.011
lradius 111.348
lwrist 11.4423
lhand -36.8415 -31.831
lfingers 7.12502
lthumb -9.92172 -2.08486
rfemur -26.7657 -9.80452 3.05868
rtibia 10.4425
rfoot 3.25541 -16.5061
rtoes 31.0602
lfemur 26.9196 -2.59412 -29.818
ltibia 31.3473
lfoot -13.9357 0.204563
ltoes -9.89384
110
root 47.0038 17.2936 -5.65263 139.464 72.2565 141.357
lowerback 8.19018 -6.24114 -15.1754
upperback 1.67425 -9.46156 -1.4237
thorax -0.579882 -4.68725 7.49462
lowerneck -25.39 4.28879 3.69721
upperneck 27.6444 5.62367 -2.21466
head 13.8084 2.59181 -0.407885
rclavicle 3.98812e-014 -3.77691e-015
rhumerus -97.8011 17.1897 -77.6188
rradius 78.6497
rwrist -17.4647
rhand -20.994 -27.0531
rfingers 7.12502
rthumb 5.38013 -56.9648
lclavicle 3.98812e-014 -3.77691e-015
lhumerus -23.4738 -39.3543 79.7847
lradius 112.691
lwrist 10.648
lhand -37.4641 -33.2714
lfingers 7.12502
lthumb -10.5223 -3.55473
rfemur -26.0286 -12.1638 3.31185
rtibia 9.24072
rfoot 3.3693 -17.2298
rtoes 35.5344
lfemur 27.5084 -2.54298 -29.7857
ltibia 33.6243
lfoot -14.4266 0.779912
ltoes -9.50948
111
root 47.5624 17.2169 -5.67447 138.26 71.7748 140.198
lowerback 8.05393 -6.20345 -15.6364
upperback 1.48113 -9.44458 -1.54166
thorax -0.662321 -4.65941 7.60927
lowerneck -25.4042 4.24735 3.56048
upperneck 27.5399 5.56116 -2.06396
head 13.7541 2.57174 -0.338167
rclavicle 5.76103e-014 2.38542e-014
rhumerus -98.3092 17.2587 -76.0306
rradius 79.4749
rwrist -17.0684
rhand -19.842 -26.7618
rfingers 7.12502
rthumb 6.49239 -56.6423
lclavicle 5.76103e-014 2.38542e-014
lhumerus -25.3794 -39.8408 80.2647
lradius 113.838
lwrist 9.30432
lhand -38.0217 -34.8509
lfingers 7.12502
lthumb -11.0602 -5.1623
rfemur -25.4364 -13.5381 3.0522
rtibia 8.28417
rfoot 4.50875 -17.898
rtoes 33.5771
lfemur 27.9533 -2.40293 -29.9619
ltibia 36.1033
lfoot -14.842 1.50422
ltoes -8.44484
112
root 48.1081 17.1297 -5.68922 134.911 70.8252 136.655
lowerback 7.47315 -6.03843 -17.0133
upperback 1.51534 -9.19429 -1.9848
thorax -0.216472 -4.55451 7.77476
lowerneck -25.55 4.16711 3.38949
upperneck 27.1622 5.36955 -1.73803
head 13.6001 2.51323 -0.219355
rclavicle 3.29983e-014 1.25234e-014
rhumerus -98.2094 16.8961 -74.5399
rradius 80.2062
rwrist -16.9657
rhand -19.2007 -26.9438
rfingers 7.12502
rthumb 7.11144 -56.8043
lclavicle 3.29983e-014 1.25234e-014
lhumerus -26.9821 -40.2716 80.5202
lradius 114.781
lwrist 7.38275
lhand -39.2892 -36.1016
lfingers 7.12502
lthumb -12.2825 -6.48226
rfemur -25.3179 -14.5199 1.76448
rtibia 8.57325
rfoot 4.74581 -17.952
rtoes 33.3181
lfemur 27.8823 -1.99146 -31.1088
ltibia 39.0265
lfoot -15.172 2.21349
ltoes -8.49375
113
root 48.6491 17.0166 -5.69727 133.786 71.0462 135.821
lowerback 7.41341 -5.74542 -17.0051
upperback 1.5278 -8.79177 -2.08783
thorax -0.290494 -4.34698 7.65923
lowerneck -25.6959 4.11897 3.3008
upperneck 26.9562 5.18656 -1.35457
head 13.5214 2.47673 -0.0884446
rclavicle 1.0051e-014 5.82439e-014
rhumerus -98.2095 16.6286 -73.3012
rradius 80.9825
rwrist -17.2047
rhand -19.1557 -27.3082
rfingers 7.12502
rthumb 7.15484 -57.1673
lclavicle 1.0051e-014 5.82439e-014
lhumerus -29.0785 -40.3761 81.1857
lradius 115.5
lwrist 7.0941
lhand -39.665 -39.3772
lfingers 7.12502
lthumb -12.6448 -9.77993
rfemur -24.6332 -13.5635 1.80491
rtibia 8.5854
rfoot 4.0252 -18.9582
rtoes 35.563
lfemur 28.1684 -1.34953 -30.5118
ltibia 41.9763
lfoot -15.3669 2.88588
ltoes -9.18983
114
root 49.1935 16.8982 -5.70069 134.312 71.863 136.666
lowerback 6.99098 -5.47687 -16.3351
upperback 1.7933 -8.2822 -1.95399
thorax 0.0274395 -4.13967 7.38115
lowerneck -25.5844 4.46722 3.9364
upperneck 26.4687 5.52982 -1.75888
head 13.3422 2.63226 -0.293703
rclavicle 4.8988e-014 -7.15625e-015
rhumerus -97.6766 16.3271 -72.2163
rradius 81.6635
rwrist -17.5984
rhand -19.4366 -27.9453
rfingers 7.12502
rthumb 6.88368 -57.8134
lclavicle 4.8988e-014 -7.15625e-015
lhumerus -30.8484 -40.2603 81.7855
lradius 115.805
lwrist 6.33655
lhand -40.5431 -42.1781
lfingers 7.12502
lthumb -13.4912 -12.6351
rfemur -23.9092 -12.2546 2.87717
rtibia 9.16318
rfoot 3.08405 -19.2472
rtoes 35.918
lfemur 28.3193 -0.814866 -29.024
ltibia 44.9892
lfoot -15.4589 3.48238
ltoes -8.95555
115
root 49.717 16.7651 -5.73306 130.168 71.4785 133.154
lowerback 7.49336 -4.94857 -17.1518
upperback 1.93309 -7.70029 -2.3945
thorax -0.193288 -3.82407 7.39699
lowerneck -25.4504 4.55167 4.29211
upperneck 25.9142 5.5156 -1.88225
head 13.1036 2.64347 -0.41105
rclavicle 1.62755e-014 8.94531e-015
rhumerus -97.1024 16.072 -71.3672
rradius 82.1536
rwrist -18.1322
rhand -20.1659 -28.9318
rfingers 7.12502
rthumb 6.17967 -58.8216
lclavicle 1.62755e-014 8.94531e-015
lhumerus -33.0365 -39.9081 82.7642
lradius 115.978
lwrist 6.11546
lhand -41.104 -45.0399
lfingers 7.12502
lthumb -14.0319 -15.5335
rfemur -22.9895 -12.2373 1.86923
rtibia 10.4138
rfoot 5.66786 -18.1291
rtoes 31.5809
lfemur 28.7732 -0.0277006 -29.9649
ltibia 48.1257
lfoot -15.658 4.29579
ltoes -8.09134
